# xmcd
#
# Track frame offsets: 
#        10545
#        33065
#        53541
#        78286
#        102794
#        128498
#        152234
#        184205
#        207339
#        236675
#        258177
#        283353
#
# Disc length: 4224 seconds
#
# Revision: 7
# Processed by: cddbd v1.5.2PL0 Copyright (c) Steve Scherf et al.
# Submitted via: ExactAudioCopy v1.0b6
#
DISCID=9c0ff40c
DTITLE=Various Artist - True Spirit [CD 1)
DYEAR=2002
DGENRE=Techno
TTITLE0=X-101 - Sonic Destroyer
TTITLE1=Jeff Mills - Hypnotist
TTITLE2=Eddie Flashin' Fowlkes - 420-Low
TTITLE3=Blake Baxter - Ghost
TTITLE4=Maurizio - Ploy (Strategic Mix)
TTITLE5=Bam Bam - Where's Your Child
TTITLE6=Vainqueur - Lyot (Maurizio Mix)
TTITLE7=The Vision - Projectile Darts
TTITLE8=3 Phase - Der Klang Der Familie
TTITLE9=System 01 - Drugs Work
TTITLE10=Ingator - Skyscratch (Mano Mano) (UR Mix)
TTITLE11=Clock DVA - The Hacker
EXTD=
EXTT0=
EXTT1=
EXTT2=
EXTT3=
EXTT4=
EXTT5=
EXTT6=
EXTT7=
EXTT8=
EXTT9=
EXTT10=
EXTT11=
PLAYORDER=
